<svg width="16" height="16" viewBox="0 0 16 16" fill="none" xmlns="http://www.w3.org/2000/svg">
    <g clip-path="url(#clip0_620_8679)">
        <path d="M15.3714 4.88686C14.9691 3.93371 14.3909 3.07886 13.6571 2.34514C12.9234 1.61143 12.0663 1.03314 11.1154 0.630857C10.128 0.212571 9.07886 0 8 0C6.92114 0 5.872 0.212571 4.88686 0.628571C3.93372 1.03086 3.07886 1.60914 2.34514 2.34286C1.61143 3.07657 1.03314 3.93371 0.630857 4.88457C0.212572 5.872 0 6.92114 0 8C0 9.07885 0.212571 10.128 0.628572 11.1131C1.03086 12.0663 1.60914 12.9211 2.34286 13.6549C3.07657 14.3886 3.93372 14.9669 4.88457 15.3691C5.872 15.7874 6.91886 15.9977 7.99772 15.9977C9.07657 15.9977 10.1257 15.7851 11.1109 15.3691C12.064 14.9669 12.9189 14.3886 13.6526 13.6549C14.3863 12.9211 14.9646 12.064 15.3669 11.1131C15.7851 10.1257 15.9954 9.07885 15.9954 8C15.9954 6.92114 15.7829 5.872 15.3669 4.88686H15.3714ZM8 15.2389C4.00914 15.2389 0.761143 11.9909 0.761143 8C0.761143 4.00914 4.00914 0.761143 8 0.761143C11.9909 0.761143 15.2389 4.00914 15.2389 8C15.2389 11.9909 11.9909 15.2389 8 15.2389Z" fill="#DBDBDB"/>
        <path d="M4.95304 6.47543H4.95989C5.38047 6.47543 5.72104 6.13485 5.72104 5.71428C5.72104 5.29371 5.38047 4.95314 4.95989 4.95314H4.95304C4.53247 4.95314 4.19189 5.29371 4.19189 5.71428C4.19189 6.13485 4.53247 6.47543 4.95304 6.47543Z" fill="#DBDBDB"/>
        <path d="M11.04 6.47543H11.0468C11.4674 6.47543 11.808 6.13485 11.808 5.71428C11.808 5.29371 11.4674 4.95314 11.0468 4.95314H11.04C10.6194 4.95314 10.2788 5.29371 10.2788 5.71428C10.2788 6.13485 10.6194 6.47543 11.04 6.47543Z" fill="#DBDBDB"/>
        <path d="M11.6639 9.17485C11.4719 9.09257 11.2456 9.17942 11.1633 9.37371C10.8159 10.1783 10.1804 10.8137 9.37587 11.1634C8.52558 11.5177 7.54958 11.5177 6.6993 11.1634H6.69473C5.86044 10.8274 5.20216 10.192 4.83644 9.37142C4.75187 9.17942 4.52558 9.09257 4.33358 9.17714C4.14158 9.26171 4.05473 9.48799 4.1393 9.67999C4.58501 10.6811 5.38958 11.4583 6.40901 11.8674C6.92787 12.0823 7.47644 12.192 8.03873 12.192C8.60101 12.192 9.15187 12.0823 9.67072 11.8651H9.6753C10.6604 11.4377 11.4376 10.6606 11.8627 9.67542C11.945 9.48114 11.8582 9.25714 11.6639 9.17485Z" fill="#DBDBDB"/>
    </g>
    <defs>
        <clipPath id="clip0_620_8679">
            <rect width="16" height="16" fill="white"/>
        </clipPath>
    </defs>
</svg>
