<svg xmlns="http://www.w3.org/2000/svg" width="20" height="32" viewBox="0 0 20 32" fill="none">
    <path d="M0 8.88213C0.118351 8.2943 0.207115 7.697 0.364916 7.11866C1.62733 2.74791 5.8288 -0.172248 10.5333 0.00789104C15.1588 0.197511 19.1532 3.6486 19.8731 8.06676C20.6917 13.1201 17.4765 17.7658 12.3184 18.9699C11.9535 19.0553 11.5688 19.1122 11.1743 19.188V25.6161C11.5195 25.6161 11.8548 25.6161 12.2 25.6161C12.9397 25.6161 13.6794 25.6161 14.4191 25.6161C15.0996 25.6161 15.5928 26.0807 15.5829 26.6875C15.5829 27.2848 15.0898 27.7304 14.429 27.7399C13.4723 27.7399 12.5058 27.7399 11.5491 27.7399C11.4308 27.7399 11.3124 27.7399 11.1546 27.7399C11.1546 28.8018 11.1546 29.8257 11.1546 30.8497C11.1546 31.2763 10.9968 31.6176 10.622 31.8357C9.88232 32.2813 8.95524 31.7693 8.94538 30.916C8.93551 29.8731 8.94538 28.8397 8.94538 27.7399H8.58046C7.64351 27.7399 6.70657 27.7399 5.77948 27.7399C5.02992 27.7399 4.52693 27.3132 4.51707 26.6875C4.51707 26.0523 5.02006 25.6161 5.75976 25.6161C6.80519 25.6161 7.85063 25.6161 8.91579 25.6161V19.169C7.74214 19.0268 6.60794 18.7329 5.55264 18.202C2.40647 16.6281 0.552306 14.1441 0.0690382 10.7499C0.0591756 10.6456 0.0197252 10.5508 0 10.4465C0 9.92504 0 9.40358 0 8.88213ZM2.21908 9.64061C2.21908 13.7554 5.72031 17.1117 10.0303 17.1117C14.3008 17.1117 17.7921 13.7838 17.7921 9.67853C17.7921 5.52585 14.3205 2.14112 10.05 2.14112C5.74003 2.14112 2.21908 5.50688 2.20922 9.64061H2.21908Z" fill="black"/>
</svg>