<svg width="26" height="24" viewBox="0 0 26 24" fill="none" xmlns="http://www.w3.org/2000/svg">
    <path d="M13 0C13 0 4.9582 7.12 0.4641 10.976C0.2002 11.2213 0 11.5787 0 12C0 12.7373 0.5811 13.3333 1.3 13.3333H3.9V22.6667C3.9 23.404 4.4811 24 5.2 24H9.1C9.8189 24 10.4 23.4027 10.4 22.6667V17.3333H15.6V22.6667C15.6 23.4027 16.1811 24 16.9 24H20.8C21.5189 24 22.1 23.404 22.1 22.6667V13.3333H24.7C25.4189 13.3333 26 12.7373 26 12C26 11.5787 25.7998 11.2213 25.5021 10.976C21.0392 7.12 13 0 13 0Z" fill="white"/>
</svg>