<svg xmlns="http://www.w3.org/2000/svg" width="34" height="30" viewBox="0 0 34 30" fill="none">
    <path d="M3.92056 21.065C3.7464 20.5605 3.54606 20.0614 3.41272 19.5431C2.44833 15.7769 4.12596 11.871 7.50112 9.94182C10.8397 8.03382 15.0352 8.6074 17.7824 11.3542C18.0761 11.6432 18.3302 11.9649 18.6104 12.2813L25.6512 8.2163C25.5431 8.18115 25.4612 8.14063 25.3803 8.11898C24.5376 7.89316 23.6875 7.67157 22.8479 7.43421C22.2245 7.26717 21.9152 6.78216 22.0679 6.23534C22.2206 5.68853 22.7278 5.43469 23.3513 5.60173C25.0021 6.04408 26.653 6.48643 28.3039 6.92877C28.9619 7.10509 29.2281 7.56619 29.0518 8.22422C28.6137 9.88241 28.1682 11.5448 27.7185 13.1999C27.5577 13.8002 27.0727 14.1095 26.5343 13.9715C25.9844 13.8303 25.7148 13.3126 25.8861 12.6965C26.1335 11.773 26.381 10.8494 26.6439 9.86812L19.6397 13.912C19.8331 14.7372 20.0966 15.5316 20.1988 16.3509C20.6634 19.9275 18.8682 23.3256 15.6827 25.0086C12.0015 26.9485 7.2469 25.8292 4.79156 22.4553C4.74198 22.3864 4.682 22.3332 4.61778 22.2726L3.92056 21.065ZM17.4746 14.0495C15.645 10.8804 11.5771 9.78426 8.40374 11.6066C5.19805 13.4574 4.0726 17.5422 5.9065 20.7186C7.75308 23.917 11.8556 25.0225 15.0582 23.1832C18.2346 21.3493 19.3181 17.2595 17.4746 14.0495Z" fill="black"/>
</svg>