<svg width="24" height="21" viewBox="0 0 24 21" fill="none" xmlns="http://www.w3.org/2000/svg">
    <path d="M4.66987 21C4.16227 21 3.7562 20.8966 3.2486 20.7931C2.94405 20.6897 2.63949 20.4828 2.43645 20.2759L2.33493 20.1724C2.23342 20.069 2.1319 19.8621 2.1319 19.7586C2.1319 19.5517 2.23342 19.4483 2.43645 19.3448C3.2486 18.931 3.95924 18.2069 4.36531 17.3793C4.46683 17.2759 4.56835 17.1724 4.56835 17.069C1.72582 15.3103 0 12.5172 0 9.51724C0 4.34483 5.27898 0 11.6747 0C18.0704 0 23.3493 4.34483 23.3493 9.51724C23.3493 14.6897 18.0704 19.0345 11.6747 19.0345C11.0656 19.0345 10.3549 19.0345 9.74581 18.931C8.22303 20.2759 6.39569 21 4.66987 21Z" fill="white"/>
</svg>
