<svg width="16" height="16" viewBox="0 0 16 16" fill="none" xmlns="http://www.w3.org/2000/svg">
    <g clip-path="url(#clip0_3365_2739)">
        <path d="M10.3043 15.05C10.1232 15.05 9.95453 14.9508 9.86771 14.7871L6.628 8.71446L0.555415 5.32344C0.38177 5.22669 0.282545 5.03569 0.304871 4.83972C0.324716 4.64126 0.461151 4.47754 0.649679 4.41801L14.695 0.0248063C14.7099 0.0198451 14.7273 0.0148838 14.7446 0.0124032C14.7769 0.00496127 14.8066 0.00248063 14.8389 0C14.8811 0 14.9232 0.00496127 14.9629 0.0124032C15.015 0.0248063 15.0646 0.0446514 15.1118 0.074419C15.144 0.0942641 15.1738 0.11907 15.2011 0.146357C15.2284 0.173644 15.2507 0.203412 15.2705 0.23566C15.3003 0.282792 15.3201 0.332405 15.3325 0.384498C15.34 0.416746 15.3449 0.451475 15.3449 0.483723C15.3449 0.525894 15.34 0.568065 15.3325 0.607755C15.3276 0.62512 15.3251 0.640003 15.3177 0.654887L10.7731 14.7002C10.7111 14.8888 10.5424 15.0252 10.344 15.0426C10.3291 15.0426 10.3142 15.0426 10.2993 15.0426L10.3043 15.05ZM7.60785 8.44407L10.1927 13.2912L13.7474 2.30699L7.61034 8.44407H7.60785ZM2.04628 5.01832L6.91328 7.73461L13.0776 1.57024L2.04628 5.01832Z" fill="#BE1212"/>
    </g>
    <defs>
        <clipPath id="clip0_3365_2739">
            <rect width="15.05" height="15.05" fill="white" transform="translate(0.299805)"/>
        </clipPath>
    </defs>
</svg>
