<svg width="36" height="21" viewBox="0 0 36 21" fill="none" xmlns="http://www.w3.org/2000/svg">
    <path d="M0.349609 10.5C1.99459 7.33989 4.49969 4.68672 7.58804 2.83371C10.6764 0.980697 14.2277 0 17.8496 0C21.4715 0 25.0228 0.980697 28.1112 2.83371C31.1995 4.68672 33.7046 7.33989 35.3496 10.5C33.7046 13.6601 31.1995 16.3133 28.1112 18.1663C25.0228 20.0193 21.4715 21 17.8496 21C14.2277 21 10.6764 20.0193 7.58804 18.1663C4.49969 16.3133 1.99459 13.6601 0.349609 10.5ZM17.8496 17.4953C19.744 17.4953 21.5608 16.7583 22.9004 15.4464C24.2399 14.1346 24.9925 12.3553 24.9925 10.5C24.9925 8.64472 24.2399 6.86543 22.9004 5.55355C21.5608 4.24167 19.744 3.50467 17.8496 3.50467C15.9552 3.50467 14.1384 4.24167 12.7988 5.55355C11.4593 6.86543 10.7068 8.64472 10.7068 10.5C10.7068 12.3553 11.4593 14.1346 12.7988 15.4464C14.1384 16.7583 15.9552 17.4953 17.8496 17.4953ZM17.8496 13.9977C16.9024 13.9977 15.994 13.6292 15.3242 12.9732C14.6545 12.3173 14.2782 11.4276 14.2782 10.5C14.2782 9.57236 14.6545 8.68272 15.3242 8.02678C15.994 7.37084 16.9024 7.00233 17.8496 7.00233C18.7968 7.00233 19.7052 7.37084 20.375 8.02678C21.0448 8.68272 21.421 9.57236 21.421 10.5C21.421 11.4276 21.0448 12.3173 20.375 12.9732C19.7052 13.6292 18.7968 13.9977 17.8496 13.9977Z" fill="white"/>
</svg>